<?xml version="1.0" encoding="UTF-8"?>
<svg xmlns="http://www.w3.org/2000/svg" xmlns:xlink="http://www.w3.org/1999/xlink" width="375pt" height="374.999991pt" viewBox="0 0 375 374.999991" version="1.2">
<defs>
<clipPath id="clip1">
  <path d="M 112.5 124.773438 L 262.5 124.773438 L 262.5 249.824219 L 112.5 249.824219 Z M 112.5 124.773438 "/>
</clipPath>
</defs>
<g id="surface1">
<g clip-path="url(#clip1)" clip-rule="nonzero">
<path style=" stroke:none;fill-rule:nonzero;fill:rgb(98.429871%,83.918762%,85.879517%);fill-opacity:1;" d="M 251.546875 133.691406 C 248.597656 133.894531 245.953125 133.996094 243.414062 134.296875 C 238.941406 134.804688 234.671875 136.222656 230.707031 138.351562 C 224.402344 141.59375 218.101562 144.734375 212.609375 149.195312 C 207.019531 153.652344 202.34375 159.125 198.886719 165.410156 C 196.140625 170.679688 193.496094 176.050781 190.550781 181.320312 C 188.617188 184.765625 186.484375 188.210938 184.246094 191.453125 C 182.316406 194.089844 179.773438 196.214844 176.824219 197.632812 C 169.40625 201.789062 161.78125 205.742188 153.648438 208.175781 C 152.628906 208.578125 151.613281 209.085938 150.597656 209.59375 C 147.953125 210.910156 145.414062 212.328125 142.769531 213.542969 C 139.515625 215.066406 136.464844 216.992188 133.824219 219.320312 C 132.804688 220.335938 131.789062 221.449219 131.078125 222.664062 C 126.910156 229.152344 123.960938 236.445312 122.335938 243.945312 C 122.132812 244.757812 121.929688 245.566406 121.726562 246.277344 C 121.015625 248.507812 118.574219 249.824219 116.234375 249.214844 C 114 248.609375 112.574219 246.378906 112.984375 244.148438 C 113.085938 243.136719 113.289062 242.222656 113.59375 241.3125 C 114.507812 238.269531 115.421875 235.230469 116.234375 232.191406 C 117.964844 226.3125 121.117188 221.042969 124.46875 215.976562 C 127.417969 211.621094 131.890625 208.679688 136.566406 206.449219 C 143.378906 203.207031 149.988281 199.660156 157.101562 197.027344 C 162.898438 194.898438 168.285156 191.757812 173.675781 188.71875 C 176.722656 186.996094 178.65625 184.054688 180.28125 181.117188 C 182.519531 177.0625 184.550781 172.910156 186.6875 168.855469 C 188.109375 166.117188 189.636719 163.382812 191.058594 160.746094 C 196.242188 151.425781 203.664062 143.519531 212.8125 137.945312 C 218.8125 134.195312 225.011719 130.851562 231.519531 128.015625 C 236.296875 126.089844 241.378906 125.078125 246.464844 124.976562 C 249.816406 124.773438 253.171875 124.875 256.425781 124.875 C 256.933594 124.875 257.441406 124.875 257.847656 124.976562 C 260.59375 125.378906 262.425781 127.507812 262.21875 129.941406 C 262.015625 132.375 259.78125 134.097656 257.035156 133.996094 C 255.105469 133.996094 253.171875 133.792969 251.546875 133.691406 Z M 251.546875 133.691406 "/>
</g>
</g>
</svg>
